<svg xmlns="http://www.w3.org/2000/svg" viewBox="0 0 34.4 37.8"><defs><style>.cls-1{fill:#fff;}</style></defs><g id="Laag_2" data-name="Laag 2"><g id="Laag_1-2" data-name="Laag 1"><path class="cls-1" d="M31.13,0H24.87A3.26,3.26,0,0,0,21.6,3.27V9.94l5,7.94a1.67,1.67,0,0,1-2.73,1.93L21.6,16.24,12.94,2.39l-.48-.76a3.3,3.3,0,0,0-1-1A3.29,3.29,0,0,0,9.54,0H3.27A3.26,3.26,0,0,0,0,3.27V34.53A3.26,3.26,0,0,0,3.27,37.8H9.54a3.27,3.27,0,0,0,3.27-3.27V28.64s0,0,0-.06a1.89,1.89,0,0,0-1.88-1.83H9a1.69,1.69,0,0,1-1.68-1.68V18.91a1.69,1.69,0,0,1,1.42-1.65l.13,0h.17a1.71,1.71,0,0,1,1.42.79l2.33,3.72h0l8.75,14a3.29,3.29,0,0,0,.75.82,3.25,3.25,0,0,0,2.56,1.25h6.26a3.26,3.26,0,0,0,3.27-3.27V3.27A3.26,3.26,0,0,0,31.13,0Z"/></g></g></svg>